<svg xmlns="http://www.w3.org/2000/svg" class="plt-container" width="600.0" height="400.0">
  <style type="text/css">
  .plt-container {
   font-family: Lucida Grande, sans-serif;
   user-select: none;
   -webkit-user-select: none;
   -moz-user-select: none;
   -ms-user-select: none;
}
text {
   text-rendering: optimizeLegibility;
}
#pwtknCD .plot-title {
   fill: #474747;
   font-family: Lucida Grande, sans-serif;
   font-size: 16.0px;
   font-weight: normal;
   font-style: normal;   
}
#pwtknCD .plot-subtitle {
   fill: #474747;
   font-family: Lucida Grande, sans-serif;
   font-size: 15.0px;
   font-weight: normal;
   font-style: normal;   
}
#pwtknCD .plot-caption {
   fill: #474747;
   font-family: Lucida Grande, sans-serif;
   font-size: 13.0px;
   font-weight: normal;
   font-style: normal;   
}
#pwtknCD .legend-title {
   fill: #474747;
   font-family: Lucida Grande, sans-serif;
   font-size: 15.0px;
   font-weight: normal;
   font-style: normal;   
}
#pwtknCD .legend-item {
   fill: #474747;
   font-family: Lucida Grande, sans-serif;
   font-size: 13.0px;
   font-weight: normal;
   font-style: normal;   
}
#pwtknCD .axis-title-x {
   fill: #474747;
   font-family: Lucida Grande, sans-serif;
   font-size: 15.0px;
   font-weight: normal;
   font-style: normal;   
}
#pwtknCD .axis-text-x {
   fill: #474747;
   font-family: Lucida Grande, sans-serif;
   font-size: 13.0px;
   font-weight: normal;
   font-style: normal;   
}
#dTeLfcw .axis-tooltip-text-x {
   fill: #ffffff;
   font-family: Lucida Grande, sans-serif;
   font-size: 13.0px;
   font-weight: normal;
   font-style: normal;   
}
#pwtknCD .axis-title-y {
   fill: #474747;
   font-family: Lucida Grande, sans-serif;
   font-size: 15.0px;
   font-weight: normal;
   font-style: normal;   
}
#pwtknCD .axis-text-y {
   fill: #474747;
   font-family: Lucida Grande, sans-serif;
   font-size: 13.0px;
   font-weight: normal;
   font-style: normal;   
}
#dTeLfcw .axis-tooltip-text-y {
   fill: #ffffff;
   font-family: Lucida Grande, sans-serif;
   font-size: 13.0px;
   font-weight: normal;
   font-style: normal;   
}
#pwtknCD .facet-strip-text-x {
   fill: #474747;
   font-family: Lucida Grande, sans-serif;
   font-size: 13.0px;
   font-weight: normal;
   font-style: normal;   
}
#pwtknCD .facet-strip-text-y {
   fill: #474747;
   font-family: Lucida Grande, sans-serif;
   font-size: 13.0px;
   font-weight: normal;
   font-style: normal;   
}
#dTeLfcw .tooltip-text {
   fill: #474747;
   font-family: Lucida Grande, sans-serif;
   font-size: 13.0px;
   font-weight: normal;
   font-style: normal;   
}
#dTeLfcw .tooltip-title {
   fill: #474747;
   font-family: Lucida Grande, sans-serif;
   font-size: 13.0px;
   font-weight: bold;
   font-style: normal;   
}
#dTeLfcw .tooltip-label {
   fill: #474747;
   font-family: Lucida Grande, sans-serif;
   font-size: 13.0px;
   font-weight: bold;
   font-style: normal;   
}

  </style>
  <g id="pwtknCD">
    <rect x="0.0" y="0.0" height="400.0" width="600.0" stroke="rgb(71,71,71)" stroke-opacity="1.0" stroke-width="0.0" fill="rgb(255,255,255)" fill-opacity="1.0">
    </rect>
    <g transform="translate(23.0 10.0 ) ">
      <g transform="translate(35.01530667574961 344.0 ) ">
        <line x1="68.95384960943113" y1="-0.0" x2="68.95384960943113" y2="-344.0" stroke="rgb(233,233,233)" stroke-opacity="1.0" stroke-width="1.0">
        </line>
        <line x1="152.35971684050077" y1="-0.0" x2="152.35971684050077" y2="-344.0" stroke="rgb(233,233,233)" stroke-opacity="1.0" stroke-width="1.0">
        </line>
        <line x1="235.76558407157043" y1="-0.0" x2="235.76558407157043" y2="-344.0" stroke="rgb(233,233,233)" stroke-opacity="1.0" stroke-width="1.0">
        </line>
        <line x1="319.1714513026401" y1="-0.0" x2="319.1714513026401" y2="-344.0" stroke="rgb(233,233,233)" stroke-opacity="1.0" stroke-width="1.0">
        </line>
        <line x1="402.57731853370973" y1="-0.0" x2="402.57731853370973" y2="-344.0" stroke="rgb(233,233,233)" stroke-opacity="1.0" stroke-width="1.0">
        </line>
        <line x1="485.98318576477936" y1="-0.0" x2="485.98318576477936" y2="-344.0" stroke="rgb(233,233,233)" stroke-opacity="1.0" stroke-width="1.0">
        </line>
        <g transform="translate(68.95384960943113 0.0 ) ">
          <line stroke-width="1.0" stroke="rgb(71,71,71)" stroke-opacity="1.0" x2="0.0" y2="4.0">
          </line>
          <g transform="translate(0.0 7.0 ) ">
            <text class="axis-text-x" text-anchor="middle" dy="0.7em">
            -2
            </text>
          </g>
        </g>
        <g transform="translate(152.35971684050077 0.0 ) ">
          <line stroke-width="1.0" stroke="rgb(71,71,71)" stroke-opacity="1.0" x2="0.0" y2="4.0">
          </line>
          <g transform="translate(0.0 7.0 ) ">
            <text class="axis-text-x" text-anchor="middle" dy="0.7em">
            -1
            </text>
          </g>
        </g>
        <g transform="translate(235.76558407157043 0.0 ) ">
          <line stroke-width="1.0" stroke="rgb(71,71,71)" stroke-opacity="1.0" x2="0.0" y2="4.0">
          </line>
          <g transform="translate(0.0 7.0 ) ">
            <text class="axis-text-x" text-anchor="middle" dy="0.7em">
            0
            </text>
          </g>
        </g>
        <g transform="translate(319.1714513026401 0.0 ) ">
          <line stroke-width="1.0" stroke="rgb(71,71,71)" stroke-opacity="1.0" x2="0.0" y2="4.0">
          </line>
          <g transform="translate(0.0 7.0 ) ">
            <text class="axis-text-x" text-anchor="middle" dy="0.7em">
            1
            </text>
          </g>
        </g>
        <g transform="translate(402.57731853370973 0.0 ) ">
          <line stroke-width="1.0" stroke="rgb(71,71,71)" stroke-opacity="1.0" x2="0.0" y2="4.0">
          </line>
          <g transform="translate(0.0 7.0 ) ">
            <text class="axis-text-x" text-anchor="middle" dy="0.7em">
            2
            </text>
          </g>
        </g>
        <g transform="translate(485.98318576477936 0.0 ) ">
          <line stroke-width="1.0" stroke="rgb(71,71,71)" stroke-opacity="1.0" x2="0.0" y2="4.0">
          </line>
          <g transform="translate(0.0 7.0 ) ">
            <text class="axis-text-x" text-anchor="middle" dy="0.7em">
            3
            </text>
          </g>
        </g>
        <line x1="0.0" y1="0.0" x2="531.9846933242504" y2="0.0" stroke-width="1.0" stroke="rgb(71,71,71)" stroke-opacity="1.0">
        </line>
      </g>
      <g transform="translate(35.01530667574961 0.0 ) ">
        <line x1="0.0" y1="293.92651113722354" x2="531.9846933242504" y2="293.92651113722354" stroke="rgb(233,233,233)" stroke-opacity="1.0" stroke-width="1.0">
        </line>
        <line x1="0.0" y1="243.85302227444708" x2="531.9846933242504" y2="243.85302227444708" stroke="rgb(233,233,233)" stroke-opacity="1.0" stroke-width="1.0">
        </line>
        <line x1="0.0" y1="193.7795334116706" x2="531.9846933242504" y2="193.7795334116706" stroke="rgb(233,233,233)" stroke-opacity="1.0" stroke-width="1.0">
        </line>
        <line x1="0.0" y1="143.70604454889417" x2="531.9846933242504" y2="143.70604454889417" stroke="rgb(233,233,233)" stroke-opacity="1.0" stroke-width="1.0">
        </line>
        <line x1="0.0" y1="93.63255568611771" x2="531.9846933242504" y2="93.63255568611771" stroke="rgb(233,233,233)" stroke-opacity="1.0" stroke-width="1.0">
        </line>
        <line x1="0.0" y1="43.559066823341254" x2="531.9846933242504" y2="43.559066823341254" stroke="rgb(233,233,233)" stroke-opacity="1.0" stroke-width="1.0">
        </line>
        <g transform="translate(0.0 344.0 ) ">
          <g transform="translate(-3.0 0.0 ) ">
            <text class="axis-text-y" text-anchor="end" dy="0.35em">
            0.00
            </text>
          </g>
        </g>
        <g transform="translate(0.0 293.92651113722354 ) ">
          <g transform="translate(-3.0 0.0 ) ">
            <text class="axis-text-y" text-anchor="end" dy="0.35em">
            0.05
            </text>
          </g>
        </g>
        <g transform="translate(0.0 243.85302227444708 ) ">
          <g transform="translate(-3.0 0.0 ) ">
            <text class="axis-text-y" text-anchor="end" dy="0.35em">
            0.10
            </text>
          </g>
        </g>
        <g transform="translate(0.0 193.7795334116706 ) ">
          <g transform="translate(-3.0 0.0 ) ">
            <text class="axis-text-y" text-anchor="end" dy="0.35em">
            0.15
            </text>
          </g>
        </g>
        <g transform="translate(0.0 143.70604454889417 ) ">
          <g transform="translate(-3.0 0.0 ) ">
            <text class="axis-text-y" text-anchor="end" dy="0.35em">
            0.20
            </text>
          </g>
        </g>
        <g transform="translate(0.0 93.63255568611771 ) ">
          <g transform="translate(-3.0 0.0 ) ">
            <text class="axis-text-y" text-anchor="end" dy="0.35em">
            0.25
            </text>
          </g>
        </g>
        <g transform="translate(0.0 43.559066823341254 ) ">
          <g transform="translate(-3.0 0.0 ) ">
            <text class="axis-text-y" text-anchor="end" dy="0.35em">
            0.30
            </text>
          </g>
        </g>
      </g>
      <g transform="translate(35.01530667574961 0.0 ) " clip-path="url(#c2po6gJ)" clip-bounds-jfx="[rect (0.0, 0.0), (531.9846933242504, 344.0)]">
        <defs>
          <clipPath id="c2po6gJ">
            <rect x="0.0" y="0.0" width="531.9846933242504" height="344.0">
            </rect>
          </clipPath>
        </defs>
        <g>
          <path d="M24.18112242382955 325.6196508035616 L24.18112242382955 325.6196508035616 L25.12754600206162 325.15055445363055 L26.07396958029372 324.6809248624699 L27.020393158525792 324.2110088644184 L27.966816736757835 323.74102471603334 L28.913240314989906 323.27115911432065 L29.859663893222006 322.8015642275414 L30.806087471454077 322.332354753051 L31.752511049686177 321.86360501695776 L32.69893462791825 321.3953461306501 L33.64535820615032 320.92756321943386 L34.59178178438242 320.4601927386378 L35.53820536261446 319.99311989258973 L36.484628940846534 319.52617617182943 L37.431052519078605 319.0591370238188 L38.377476097310705 318.59171967222034 L39.323899675542776 318.12358109955744 L40.270323253774876 317.6543162077328 L41.21674683200695 317.18345617047714 L42.16317041023902 316.7104669913232 L43.10959398847106 316.23474828015674 L44.05601756670316 315.75563226079254 L45.00244114493523 315.27238302135237 L45.948864723167304 314.7841960185027 L46.895288301399404 314.2901978458285 L47.841711879631475 313.78944627579637 L48.788135457863575 313.2809305838834 L49.73455903609562 312.7635721625353 L50.68098261432769 312.23622543165845 L51.62740619255976 311.69767905135865 L52.57382977079186 311.14665744161005 L53.52025334902393 310.5818226124786 L54.46667692725603 310.00177630742843 L55.4131005054881 309.40506246112113 L56.359524083720146 308.7901699719621 L57.30594766195222 308.15553578846686 L58.25237124018432 307.4995483073117 L59.19879481841639 306.8205510796855 L60.14521839664846 306.1168468212927 L61.09164197488056 305.38670172004936 L62.03806555311263 304.6283500341796 L62.984489131344674 303.8399989720476 L63.93091270957677 303.0198338436597 L64.87733628780884 302.16602347233214 L65.82375986604092 301.27672585355265 L66.77018344427302 300.3500940465634 L67.71660702250509 299.3842822826652 L68.66303060073716 298.37745227269 L69.60945417896923 297.3277796945191 L70.55587775720133 296.23346083993675 L71.50230133543337 295.0927193985242 L72.44872491366547 293.90381335471125 L73.39514849189754 292.66504197253795 L74.34157207012962 291.37475284114043 L75.28799564836171 290.0313489524791 L76.23441922659379 288.63329578139843 L77.18084280482586 287.1791283367482 L78.12726638305793 285.66745815104167 L79.07368996129 284.096980174986 L80.02011353952207 282.466479542218 L80.96653711775417 280.7748381687397 L81.91296069598624 279.02104115089 L82.85938427421831 277.20418292523533 L83.80580785245041 275.3234731535349 L84.75223143068249 273.37824229595657 L85.69865500891453 271.3679468360035 L86.64507858714663 269.2921741211803 L87.5915021653787 267.1506467842969 L88.53792574361077 264.94322671148217 L89.48434932184287 262.66991852448683 L90.43077290007494 260.33087254667515 L91.37719647830701 257.9263872242685 L92.32362005653908 255.45691097688876 L93.27004363477116 252.92304345425867 L94.21646721300323 250.32553617904253 L95.16289079123533 247.66529255923086 L96.1093143694674 244.94336725717164 L97.05573794769947 242.16096490631202 L98.00216152593157 239.3194381708934 L98.94858510416361 236.42028514822184 L99.89500868239571 233.4651461176687 L100.84143226062778 230.4557996452117 L101.78785583885985 227.39415805704715 L102.73427941709193 224.28226230055571 L103.68070299532403 221.1222762156372 L104.6271265735561 217.91648024408144 L105.57355015178817 214.6672646091808 L106.51997373002024 211.3771220021417 L107.46639730825231 208.04863981598947 L108.41282088648438 204.68449197151662 L109.35924446471647 201.28743038335105 L110.30566804294855 197.86027611739124 L111.25209162118064 194.40591029360132 L112.1985151994127 190.92726479046766 L113.14493877764478 187.42731280923815 L114.09136235587687 183.9090593573781 L115.03778593410892 180.37553171146283 L115.98420951234101 176.82976991995542 L116.9306330905731 173.27481740600075 L117.87705666880517 169.71371172948193 L118.82348024703724 166.1494755661485 L119.76990382526931 162.5851079596429 L120.7163274035014 159.0235758997397 L121.66275098173348 155.46780627709313 L122.60917455996554 151.92067826130915 L123.55559813819762 148.38501614521238 L124.50202171642971 144.86358269387418 L125.4484452946618 141.35907303226722 L126.39486887289385 137.87410910045585 L127.34129245112594 134.41123469998087 L128.28771602935802 130.97291114970307 L129.2341396075901 127.56151356379232 L130.18056318582217 124.1793277589367 L131.12698676405424 120.82854779219733 L132.0734103422863 117.51127412533467 L133.0198339205184 114.22951240593414 L133.96625749875045 110.9851728503198 L134.91268107698255 107.7800702081162 L135.85910465521465 104.6159242834444 L136.8055282334467 101.49436098318827 L137.7519518116788 98.41691385854205 L138.69837538991086 95.38502610223247 L139.64479896814294 92.40005296039718 L140.591222546375 89.46326451513292 L141.53764612460708 86.57584879123715 L142.48406970283918 83.73891513863066 L143.43049328107125 80.95349784044299 L144.37691685930332 78.22055989568855 L145.3233404375354 75.54099692492798 L146.26976401576746 72.91564114726754 L147.21618759399956 70.3452653774612 L148.1626111722316 67.83058699277132 L149.1090347504637 65.3722718205915 L150.0554583286958 62.97093789956642 L151.00188190692785 60.62715906911575 L151.94830548515995 58.34146834477582 L152.89472906339202 56.114361039640414 L153.8411526416241 53.94629759534706 L154.78757621985616 51.83770608949362 L155.73399979808823 49.78898439006986 L156.68042337632033 47.800501931369126 L157.6268469545524 45.87260108992501 L158.57327053278448 44.00559814323469 L159.51969411101655 42.19978379835203 L160.46611768924862 40.455423281839956 L161.4125412674807 38.772755987035225 L162.35896484571276 37.15199467904256 L163.30538842394486 35.5933242623467 L164.25181200217696 34.09690012036788 L165.198235580409 32.66284604064015 L166.1446591586411 31.29125174359831 L167.09108273687318 29.98217003709965 L168.03750631510525 28.735613622875633 L168.98392989333732 27.551551584958418 L169.9303534715694 26.429905593857143 L170.8767770498015 25.370545863722498 L171.82320062803356 24.373286903049575 L172.76962420626563 23.437883102475666 L172.76962420626563 23.437883102475666 L173.7160477844977 22.564024205997157 L174.66247136272978 21.751330714430992 L175.60889494096187 20.999349272087954 L176.55531851919392 20.3075480894899 L177.50174209742602 19.67531245645546 L178.4481656756581 19.101940400994238 L179.39458925389016 18.58663855020245 L180.34101283212226 18.128518249679075 L181.28743641035433 17.726591997884157 L182.2338599885864 17.37977025134029 L183.18028356681847 17.086858655577828 L184.12670714505055 16.846555755286488 L185.07313072328265 16.657451235188603 L186.01955430151472 16.518024740761064 L186.9659778797468 16.426645325004586 L187.91240145797886 16.38157156410631 L188.85882503621093 16.380952380952408 L189.80524861444303 16.422828611126533 L190.75167219267507 16.505135341222626 L191.69809577090714 16.625705044071424 L192.64451934913922 16.782271529823106 L193.59094292737132 16.97247472579022 L194.5373665056034 17.193866291560653 L195.4837900838355 17.443916069176623 L196.43021366206756 17.720019361212167 L197.37663724029966 18.019505022365763 L198.32306081853173 18.339644342847294 L199.26948439676377 18.67766069434208 L200.21590797499584 19.030739901857203 L201.16233155322794 19.396041297241254 L202.10875513146001 19.770709402797024 L203.0551787096921 20.15188618615963 L204.0016022879242 20.536723820635018 L204.94802586615626 20.922397878512356 L205.8944494443883 21.306120878561785 L206.8408730226204 21.685156103101917 L207.78729660085247 22.056831594708342 L208.73372017908454 22.418554237935496 L209.68014375731664 22.767823827362122 L210.6265673355487 23.102247019969923 L211.5729909137808 23.419551067299437 L212.51941449201288 23.717597221134383 L213.46583807024493 23.994393705601738 L214.412261648477 24.24810814866231 L215.3586852267091 24.47707936694178 L216.30510880494117 24.67982839982011 L217.25153238317324 24.855068691603606 L218.19795596140534 25.00171532448752 L219.1443795396374 25.118893209846647 L220.09080311786948 25.205944151158917 L221.03722669610156 25.262432698552516 L221.98365027433363 25.288150722504213 L222.9300738525657 25.28312064258671 L223.8764974307978 25.24759725630446 L224.82292100902987 25.18206812288372 L225.76934458726194 25.087252467339283 L226.71576816549404 24.964098581162148 L227.66219174372608 24.813779707405956 L228.60861532195815 24.637688409801285 L229.55503890019025 24.43742943759031 L230.50146247842233 24.21481111002305 L231.4478860566544 23.971835256747568 L232.3943096348865 23.71068576255834 L233.34073321311857 23.43371577701606 L234.28715679135064 23.14343366123461 L235.2335803695827 22.84248775550617 L236.18000394781478 22.533650062304275 L236.18000394781478 22.533650062304275 L237.12642752604685 22.219798949472704 L238.07285110427895 21.903900987960185 L239.01927468251102 21.58899204719046 L239.9656982607431 21.27815777901708 L240.9121218389752 20.974513628048385 L241.85854541720724 20.6811845119459 L242.8049689954393 20.401284319954925 L243.7513925736714 20.137895381427484 L244.69781615190348 19.89404805834721 L245.64423973013555 19.672700616854627 L246.59066330836765 19.476719532481184 L247.53708688659972 19.308860382177272 L248.4835104648318 19.171749473307386 L249.42993404306384 19.06786635557529 L250.37635762129594 18.99952735634014 L251.322781199528 18.968870273050868 L252.2692047777601 18.977840348592906 L253.21562835599218 19.02817764626144 L254.16205193422425 19.121405930919934 L255.10847551245635 19.258823151753745 L256.05489909068837 19.441493609971303 L257.00132266892047 19.67024188192221 L257.94774624715257 19.945648554515458 L258.8941698253846 20.268047815647037 L259.8405934036167 20.63752692766326 L260.7870169818488 21.053927596874416 L261.7334405600809 21.51684923688032 L262.67986413831295 22.0256541080974 L263.626287716545 22.579474300578 L264.5727112947771 23.177220512033614 L265.5191348730092 23.8175925581225 L266.46555845124124 24.499091537629795 L267.41198202947334 25.22003356127817 L268.35840560770544 25.978564939724947 L269.3048291859375 26.772678713887842 L270.2512527641695 27.60023239924851 L271.1976763424016 28.458966805322007 L272.1440999206337 29.346525782094147 L273.09052349886576 30.260476737077 L274.03694707709786 31.19833175973008 L274.98337065532996 32.157569184454815 L275.929794233562 33.135655419204284 L276.8762178117941 34.13006686404367 L277.82264139002615 35.138311742744804 L278.76906496825825 36.15795167074435 L279.71548854649035 37.186622784510575 L280.6619121247224 38.222056260595025 L281.6083357029545 39.26209805729718 L282.5547592811866 40.30472771796832 L283.50118285941863 41.348076082454384 L284.4476064376507 42.39044176195239 L285.3940300158828 43.43030624258273 L286.3404535941149 44.46634749416887 L287.2868771723469 45.49745197294993 L288.233300750579 46.522724920175335 L289.1797243288111 47.541498872571765 L290.1261479070432 48.55334031545516 L291.07257148527526 49.55805442464339 L292.0189950635073 50.555687859154375 L292.9654186417394 51.5465295828501 L293.9118422199715 52.531109709534064 L294.85826579820355 53.51019638239376 L295.80468937643565 54.48479071498309 L296.75111295466775 55.45611983695716 L297.6975365328998 56.425628103442364 L298.64396011113183 57.394966542040436 L299.59038368936393 58.36598062592935 L300.53680726759603 59.34069647519618 L301.4832308458281 60.32130560131458 L302.4296544240602 61.31014832140721 L302.4296544240602 61.31014832140721 L303.3760780022923 62.309695979567664 L304.3225015805243 63.322532121905624 L305.2689251587564 64.35133278009585 L306.21534873698846 65.39884602492276 L307.16177231522056 66.46787095664098 L308.1081958934526 67.56123630279097 L309.0546194716847 68.6817787964539 L310.0010430499168 69.83232150874852 L310.94746662814885 71.01565230866771 L311.89389020638095 72.23450262116347 L312.840313784613 73.49152665068846 L313.7867373628451 74.78928123230384 L314.7331609410772 76.13020646593492 L315.67958451930923 77.51660728156168 L316.62600809754133 78.95063607404745 L317.57243167577343 80.43427653612542 L318.51885525400553 81.96932880679623 L319.4652788322376 83.55739604021494 L320.4117024104696 85.19987248714381 L321.3581259887017 86.8979331673579 L322.3045495669338 88.65252519715006 L323.25097314516586 90.46436082142188 L324.19739672339796 92.33391218490513 L325.14382030163006 94.26140786198911 L326.0902438798621 96.24683114955604 L327.0366674580942 98.28992011230889 L327.98309103632624 100.39016935544663 L328.92951461455834 102.54683348531663 L329.8759381927904 104.75893220502459 L330.8223617710225 107.0252569789769 L331.7687853492546 109.34437918812989 L332.71520892748663 111.71465968640265 L333.6616325057187 114.13425965837851 L334.60805608395077 116.60115266915761 L335.55447966218287 119.11313778910733 L336.5009032404149 121.66785366933198 L337.447326818647 124.2627934380206 L338.3937503968791 126.89532028343487 L339.34017397511116 129.56268358621668 L340.28659755334326 132.2620354619112 L341.23302113157536 134.9904475741283 L342.1794447098074 137.74492807955968 L343.1258682880395 140.5224385681289 L344.07229186627154 143.31991086479937 L345.01871544450364 146.13426356397517 L345.96513902273574 148.96241817291008 L346.9115626009678 151.80131474702776 L347.8579861791999 154.64792690747117 L348.8044097574319 157.49927613942998 L349.750833335664 160.352445278758 L350.6972569138961 163.2045911039871 L351.64368049212817 166.05295596093873 L352.59010407036027 168.89487835764925 L353.53652764859237 171.7278024781213 L354.4829512268244 174.54928657439538 L355.4293748050565 177.35701020748445 L356.37579838328855 180.14878031872382 L357.32222196152065 182.92253612394933 L358.2686455397527 185.676352833531 L359.21506911798474 188.40844421156493 L360.1614926962169 191.1171639973609 L361.10791627444894 193.80100622168692 L362.05433985268104 196.45860445897043 L363.0007634309131 199.08873006472618 L363.9471870091452 201.69028945485164 L364.8936105873772 204.2623204900261 L365.8400341656094 206.80398803425598 L366.7864577438414 209.31457876157154 L367.73288132207347 211.79349528900403 L368.67930490030557 214.24024971722255 L369.6257284785376 216.65445666260325 L370.5721520567697 219.03582586603855 L371.51857563500175 221.3841544644779 L372.4649992132339 223.69931901107282 L373.41142279146595 225.9812673288686 L374.357846369698 228.230010281326 L375.30426994793015 230.4456135405636 L376.2506935261622 232.62818943117782 L377.19711710439424 234.7778889238426 L378.1435406826263 236.8948938486837 L379.08996426085844 238.97940939373382 L380.0363878390905 241.03165694863682 L380.9828114173225 243.0518673482856 L381.9292349955547 245.0402745652704 L382.8756585737867 246.99710989398537 L383.8220821520188 248.92259666302897 L384.76850573025087 250.8169455062097 L385.71492930848297 252.68035021610464 L386.661352886715 254.51298419774685 L387.60777646494705 256.314997533734 L388.5542000431792 258.0865146658649 L389.50062362141125 259.82763269241 L390.44704719964335 261.5384202743352 L391.3934707778754 263.2189171382594 L392.3398943561075 264.86913415870526 L393.28631793433954 266.4890539972903 L394.2327415125717 268.0786322719771 L395.17916509080374 269.6377992253402 L396.1255886690358 271.16646185707356 L397.0720122472679 272.66450648263594 L398.0184358254999 274.1318016770599 L398.964859403732 275.56820156051623 L399.91128298196406 276.97354938024205 L400.8577065601962 278.3476813419208 L401.80413013842826 279.69043064251844 L402.7505537166603 281.00163165595376 L403.69697729489246 282.281124222779 L404.6434008731245 283.5287579952769 L405.58982445135655 284.7443967900135 L406.5362480295886 285.9279229009102 L407.48267160782075 287.07924132730165 L408.4290951860528 288.1982838731893 L409.37551876428483 289.28501307598015 L410.321942342517 290.33942592537653 L411.26836592074903 291.3615573357394 L412.21478949898113 292.35148333815187 L413.1612130772132 293.30932396153264 L414.1076366554453 294.23524577547124 L415.0540602336773 295.12946407093176 L416.0004838119095 295.9922446585905 L416.9469073901415 296.82390526828334 L417.89333096837356 297.6248165368319 L418.83975454660566 298.39540257534384 L419.7861781248377 299.13614111093005 L420.7326017030698 299.84756320160574 L421.67902528130185 300.53025252692345 L422.625448859534 301.1848442605958 L423.57187243776605 301.8120235349678 L424.5182960159981 302.41252351068135 L425.4647195942302 302.9871230681966 L426.41114317246223 303.5366441409868 L427.35756675069433 304.06194871317035 L428.3039903289264 304.563935507073 L429.25041390715853 305.0435363887039 L430.1968374853906 305.5017125213567 L431.1432610636226 305.9394502995076 L432.0896846418548 306.3577570968491 L433.0361082200868 306.75765686367305 L433.98253179831886 307.14018560987483 L434.9289553765509 307.5063868106011 L435.87537895478306 307.8573067719894 L436.8218025330151 308.1939899945504 L437.76822611124715 308.5174745715299 L438.7146496894793 308.82878765904616 L439.66107326771134 309.1289410539512 L440.60749684594344 309.41892691420605 L441.5539204241755 309.6997136551067 L442.5003440024076 309.9722420529666 L443.44676758063963 310.2374215858569 L444.3931911588718 310.4961270387563 L445.33961473710383 310.74919539798276 L446.2860383153359 310.99742305709344 L447.232461893568 311.24156335356696 L448.1788854718 311.48232445255724 L449.1253090500321 311.7203675908488 L450.07173262826416 311.95630569088473 L451.0181562064963 312.190702351406 L451.96457978472836 312.42407121786863 L452.9110033629604 312.65687573241786 L453.8574269411925 312.8895292598362 L454.80385051942454 313.12239558256596 L455.75027409765664 313.35578975467604 L456.6966976758887 313.58997930151986 L457.64312125412084 313.8251857488519 L458.5895448323529 314.0615864623575 L459.5359684105849 314.29931677593197 L460.482391988817 314.5384723846452 L461.42881556704907 314.77911197617095 L462.37523914528117 315.0212600725611 L463.3216627235132 315.264910052627 L464.26808630174537 315.51002732386416 L465.2145098799774 315.7565526118365 L466.16093345820946 316.0044053342292 L467.1073570364416 316.25348702639303 L468.05378061467366 316.503684785139 L469.0002041929057 316.7548746977977 L469.9466277711378 317.0069252241334 L470.8930513493699 317.2597004995884 L471.83947492760194 317.5130635295158 L472.7858985058341 317.7668792455326 L473.73232208406614 318.0210173968651 L474.6787456622982 318.2753552515521 L475.6251692405303 318.5297800845935 L476.5715928187623 318.78419143255877 L477.5180163969944 319.0385030967801 L478.46443997522647 319.2926448800095 L479.4108635534586 319.54656404430557 L480.35728713169067 319.80022648088584 L481.3037107099227 320.0536175857159 L482.2501342881548 320.3067428376704 L483.19655786638685 320.55962807915955 L484.14298144461895 320.812319502142 L485.089405022851 321.06488334540154 L486.03582860108315 321.3174053118324 L486.9822521793152 321.56998971721083 L487.92867575754724 321.82275838452153 L488.87509933577934 322.07584930030913 L489.8215229140114 322.32941505173466 L490.7679464922435 322.5836210649973 L491.7143700704755 322.83864366752283 L492.6607936487077 323.0946679978062 L493.6072172269397 323.3518857880085 L494.55364080517177 323.6104930453463 L495.5000643834039 323.87068765896 L496.44648796163597 324.1326669593101 L497.392911539868 324.39662525722395 L498.33933511810005 324.66275138950186 L499.2857586963322 324.9312262975021 L500.23218227456425 325.2022206643634 L501.1786058527964 325.47589263550583 L502.12502943102845 325.7523856457943 L503.0714530092605 326.03182637526277 L504.01787658749254 326.3143228536137 L504.9643001657246 326.59996273183447 L505.91072374395674 326.8888117372475 L506.8571473221888 327.18091232614614 L507.80357090042094 327.4762825459017 L507.80357090042094 344.0 L506.8571473221888 344.0 L505.91072374395674 344.0 L504.9643001657246 344.0 L504.01787658749254 344.0 L503.0714530092605 344.0 L502.12502943102845 344.0 L501.1786058527964 344.0 L500.23218227456425 344.0 L499.2857586963322 344.0 L498.33933511810005 344.0 L497.392911539868 344.0 L496.44648796163597 344.0 L495.5000643834039 344.0 L494.55364080517177 344.0 L493.6072172269397 344.0 L492.6607936487077 344.0 L491.7143700704755 344.0 L490.7679464922435 344.0 L489.8215229140114 344.0 L488.87509933577934 344.0 L487.92867575754724 344.0 L486.9822521793152 344.0 L486.03582860108315 344.0 L485.089405022851 344.0 L484.14298144461895 344.0 L483.19655786638685 344.0 L482.2501342881548 344.0 L481.3037107099227 344.0 L480.35728713169067 344.0 L479.4108635534586 344.0 L478.46443997522647 344.0 L477.5180163969944 344.0 L476.5715928187623 344.0 L475.6251692405303 344.0 L474.6787456622982 344.0 L473.73232208406614 344.0 L472.7858985058341 344.0 L471.83947492760194 344.0 L470.8930513493699 344.0 L469.9466277711378 344.0 L469.0002041929057 344.0 L468.05378061467366 344.0 L467.1073570364416 344.0 L466.16093345820946 344.0 L465.2145098799774 344.0 L464.26808630174537 344.0 L463.3216627235132 344.0 L462.37523914528117 344.0 L461.42881556704907 344.0 L460.482391988817 344.0 L459.5359684105849 344.0 L458.5895448323529 344.0 L457.64312125412084 344.0 L456.6966976758887 344.0 L455.75027409765664 344.0 L454.80385051942454 344.0 L453.8574269411925 344.0 L452.9110033629604 344.0 L451.96457978472836 344.0 L451.0181562064963 344.0 L450.07173262826416 344.0 L449.1253090500321 344.0 L448.1788854718 344.0 L447.232461893568 344.0 L446.2860383153359 344.0 L445.33961473710383 344.0 L444.3931911588718 344.0 L443.44676758063963 344.0 L442.5003440024076 344.0 L441.5539204241755 344.0 L440.60749684594344 344.0 L439.66107326771134 344.0 L438.7146496894793 344.0 L437.76822611124715 344.0 L436.8218025330151 344.0 L435.87537895478306 344.0 L434.9289553765509 344.0 L433.98253179831886 344.0 L433.0361082200868 344.0 L432.0896846418548 344.0 L431.1432610636226 344.0 L430.1968374853906 344.0 L429.25041390715853 344.0 L428.3039903289264 344.0 L427.35756675069433 344.0 L426.41114317246223 344.0 L425.4647195942302 344.0 L424.5182960159981 344.0 L423.57187243776605 344.0 L422.625448859534 344.0 L421.67902528130185 344.0 L420.7326017030698 344.0 L419.7861781248377 344.0 L418.83975454660566 344.0 L417.89333096837356 344.0 L416.9469073901415 344.0 L416.0004838119095 344.0 L415.0540602336773 344.0 L414.1076366554453 344.0 L413.1612130772132 344.0 L412.21478949898113 344.0 L411.26836592074903 344.0 L410.321942342517 344.0 L409.37551876428483 344.0 L408.4290951860528 344.0 L407.48267160782075 344.0 L406.5362480295886 344.0 L405.58982445135655 344.0 L404.6434008731245 344.0 L403.69697729489246 344.0 L402.7505537166603 344.0 L401.80413013842826 344.0 L400.8577065601962 344.0 L399.91128298196406 344.0 L398.964859403732 344.0 L398.0184358254999 344.0 L397.0720122472679 344.0 L396.1255886690358 344.0 L395.17916509080374 344.0 L394.2327415125717 344.0 L393.28631793433954 344.0 L392.3398943561075 344.0 L391.3934707778754 344.0 L390.44704719964335 344.0 L389.50062362141125 344.0 L388.5542000431792 344.0 L387.60777646494705 344.0 L386.661352886715 344.0 L385.71492930848297 344.0 L384.76850573025087 344.0 L383.8220821520188 344.0 L382.8756585737867 344.0 L381.9292349955547 344.0 L380.9828114173225 344.0 L380.0363878390905 344.0 L379.08996426085844 344.0 L378.1435406826263 344.0 L377.19711710439424 344.0 L376.2506935261622 344.0 L375.30426994793015 344.0 L374.357846369698 344.0 L373.41142279146595 344.0 L372.4649992132339 344.0 L371.51857563500175 344.0 L370.5721520567697 344.0 L369.6257284785376 344.0 L368.67930490030557 344.0 L367.73288132207347 344.0 L366.7864577438414 344.0 L365.8400341656094 344.0 L364.8936105873772 344.0 L363.9471870091452 344.0 L363.0007634309131 344.0 L362.05433985268104 344.0 L361.10791627444894 344.0 L360.1614926962169 344.0 L359.21506911798474 344.0 L358.2686455397527 344.0 L357.32222196152065 344.0 L356.37579838328855 344.0 L355.4293748050565 344.0 L354.4829512268244 344.0 L353.53652764859237 344.0 L352.59010407036027 344.0 L351.64368049212817 344.0 L350.6972569138961 344.0 L349.750833335664 344.0 L348.8044097574319 344.0 L347.8579861791999 344.0 L346.9115626009678 344.0 L345.96513902273574 344.0 L345.01871544450364 344.0 L344.07229186627154 344.0 L343.1258682880395 344.0 L342.1794447098074 344.0 L341.23302113157536 344.0 L340.28659755334326 344.0 L339.34017397511116 344.0 L338.3937503968791 344.0 L337.447326818647 344.0 L336.5009032404149 344.0 L335.55447966218287 344.0 L334.60805608395077 344.0 L333.6616325057187 344.0 L332.71520892748663 344.0 L331.7687853492546 344.0 L330.8223617710225 344.0 L329.8759381927904 344.0 L328.92951461455834 344.0 L327.98309103632624 344.0 L327.0366674580942 344.0 L326.0902438798621 344.0 L325.14382030163006 344.0 L324.19739672339796 344.0 L323.25097314516586 344.0 L322.3045495669338 344.0 L321.3581259887017 344.0 L320.4117024104696 344.0 L319.4652788322376 344.0 L318.51885525400553 344.0 L317.57243167577343 344.0 L316.62600809754133 344.0 L315.67958451930923 344.0 L314.7331609410772 344.0 L313.7867373628451 344.0 L312.840313784613 344.0 L311.89389020638095 344.0 L310.94746662814885 344.0 L310.0010430499168 344.0 L309.0546194716847 344.0 L308.1081958934526 344.0 L307.16177231522056 344.0 L306.21534873698846 344.0 L305.2689251587564 344.0 L304.3225015805243 344.0 L303.3760780022923 344.0 L302.4296544240602 344.0 L302.4296544240602 344.0 L301.4832308458281 344.0 L300.53680726759603 344.0 L299.59038368936393 344.0 L298.64396011113183 344.0 L297.6975365328998 344.0 L296.75111295466775 344.0 L295.80468937643565 344.0 L294.85826579820355 344.0 L293.9118422199715 344.0 L292.9654186417394 344.0 L292.0189950635073 344.0 L291.07257148527526 344.0 L290.1261479070432 344.0 L289.1797243288111 344.0 L288.233300750579 344.0 L287.2868771723469 344.0 L286.3404535941149 344.0 L285.3940300158828 344.0 L284.4476064376507 344.0 L283.50118285941863 344.0 L282.5547592811866 344.0 L281.6083357029545 344.0 L280.6619121247224 344.0 L279.71548854649035 344.0 L278.76906496825825 344.0 L277.82264139002615 344.0 L276.8762178117941 344.0 L275.929794233562 344.0 L274.98337065532996 344.0 L274.03694707709786 344.0 L273.09052349886576 344.0 L272.1440999206337 344.0 L271.1976763424016 344.0 L270.2512527641695 344.0 L269.3048291859375 344.0 L268.35840560770544 344.0 L267.41198202947334 344.0 L266.46555845124124 344.0 L265.5191348730092 344.0 L264.5727112947771 344.0 L263.626287716545 344.0 L262.67986413831295 344.0 L261.7334405600809 344.0 L260.7870169818488 344.0 L259.8405934036167 344.0 L258.8941698253846 344.0 L257.94774624715257 344.0 L257.00132266892047 344.0 L256.05489909068837 344.0 L255.10847551245635 344.0 L254.16205193422425 344.0 L253.21562835599218 344.0 L252.2692047777601 344.0 L251.322781199528 344.0 L250.37635762129594 344.0 L249.42993404306384 344.0 L248.4835104648318 344.0 L247.53708688659972 344.0 L246.59066330836765 344.0 L245.64423973013555 344.0 L244.69781615190348 344.0 L243.7513925736714 344.0 L242.8049689954393 344.0 L241.85854541720724 344.0 L240.9121218389752 344.0 L239.9656982607431 344.0 L239.01927468251102 344.0 L238.07285110427895 344.0 L237.12642752604685 344.0 L236.18000394781478 344.0 L236.18000394781478 344.0 L235.2335803695827 344.0 L234.28715679135064 344.0 L233.34073321311857 344.0 L232.3943096348865 344.0 L231.4478860566544 344.0 L230.50146247842233 344.0 L229.55503890019025 344.0 L228.60861532195815 344.0 L227.66219174372608 344.0 L226.71576816549404 344.0 L225.76934458726194 344.0 L224.82292100902987 344.0 L223.8764974307978 344.0 L222.9300738525657 344.0 L221.98365027433363 344.0 L221.03722669610156 344.0 L220.09080311786948 344.0 L219.1443795396374 344.0 L218.19795596140534 344.0 L217.25153238317324 344.0 L216.30510880494117 344.0 L215.3586852267091 344.0 L214.412261648477 344.0 L213.46583807024493 344.0 L212.51941449201288 344.0 L211.5729909137808 344.0 L210.6265673355487 344.0 L209.68014375731664 344.0 L208.73372017908454 344.0 L207.78729660085247 344.0 L206.8408730226204 344.0 L205.8944494443883 344.0 L204.94802586615626 344.0 L204.0016022879242 344.0 L203.0551787096921 344.0 L202.10875513146001 344.0 L201.16233155322794 344.0 L200.21590797499584 344.0 L199.26948439676377 344.0 L198.32306081853173 344.0 L197.37663724029966 344.0 L196.43021366206756 344.0 L195.4837900838355 344.0 L194.5373665056034 344.0 L193.59094292737132 344.0 L192.64451934913922 344.0 L191.69809577090714 344.0 L190.75167219267507 344.0 L189.80524861444303 344.0 L188.85882503621093 344.0 L187.91240145797886 344.0 L186.9659778797468 344.0 L186.01955430151472 344.0 L185.07313072328265 344.0 L184.12670714505055 344.0 L183.18028356681847 344.0 L182.2338599885864 344.0 L181.28743641035433 344.0 L180.34101283212226 344.0 L179.39458925389016 344.0 L178.4481656756581 344.0 L177.50174209742602 344.0 L176.55531851919392 344.0 L175.60889494096187 344.0 L174.66247136272978 344.0 L173.7160477844977 344.0 L172.76962420626563 344.0 L172.76962420626563 344.0 L171.82320062803356 344.0 L170.8767770498015 344.0 L169.9303534715694 344.0 L168.98392989333732 344.0 L168.03750631510525 344.0 L167.09108273687318 344.0 L166.1446591586411 344.0 L165.198235580409 344.0 L164.25181200217696 344.0 L163.30538842394486 344.0 L162.35896484571276 344.0 L161.4125412674807 344.0 L160.46611768924862 344.0 L159.51969411101655 344.0 L158.57327053278448 344.0 L157.6268469545524 344.0 L156.68042337632033 344.0 L155.73399979808823 344.0 L154.78757621985616 344.0 L153.8411526416241 344.0 L152.89472906339202 344.0 L151.94830548515995 344.0 L151.00188190692785 344.0 L150.0554583286958 344.0 L149.1090347504637 344.0 L148.1626111722316 344.0 L147.21618759399956 344.0 L146.26976401576746 344.0 L145.3233404375354 344.0 L144.37691685930332 344.0 L143.43049328107125 344.0 L142.48406970283918 344.0 L141.53764612460708 344.0 L140.591222546375 344.0 L139.64479896814294 344.0 L138.69837538991086 344.0 L137.7519518116788 344.0 L136.8055282334467 344.0 L135.85910465521465 344.0 L134.91268107698255 344.0 L133.96625749875045 344.0 L133.0198339205184 344.0 L132.0734103422863 344.0 L131.12698676405424 344.0 L130.18056318582217 344.0 L129.2341396075901 344.0 L128.28771602935802 344.0 L127.34129245112594 344.0 L126.39486887289385 344.0 L125.4484452946618 344.0 L124.50202171642971 344.0 L123.55559813819762 344.0 L122.60917455996554 344.0 L121.66275098173348 344.0 L120.7163274035014 344.0 L119.76990382526931 344.0 L118.82348024703724 344.0 L117.87705666880517 344.0 L116.9306330905731 344.0 L115.98420951234101 344.0 L115.03778593410892 344.0 L114.09136235587687 344.0 L113.14493877764478 344.0 L112.1985151994127 344.0 L111.25209162118064 344.0 L110.30566804294855 344.0 L109.35924446471647 344.0 L108.41282088648438 344.0 L107.46639730825231 344.0 L106.51997373002024 344.0 L105.57355015178817 344.0 L104.6271265735561 344.0 L103.68070299532403 344.0 L102.73427941709193 344.0 L101.78785583885985 344.0 L100.84143226062778 344.0 L99.89500868239571 344.0 L98.94858510416361 344.0 L98.00216152593157 344.0 L97.05573794769947 344.0 L96.1093143694674 344.0 L95.16289079123533 344.0 L94.21646721300323 344.0 L93.27004363477116 344.0 L92.32362005653908 344.0 L91.37719647830701 344.0 L90.43077290007494 344.0 L89.48434932184287 344.0 L88.53792574361077 344.0 L87.5915021653787 344.0 L86.64507858714663 344.0 L85.69865500891453 344.0 L84.75223143068249 344.0 L83.80580785245041 344.0 L82.85938427421831 344.0 L81.91296069598624 344.0 L80.96653711775417 344.0 L80.02011353952207 344.0 L79.07368996129 344.0 L78.12726638305793 344.0 L77.18084280482586 344.0 L76.23441922659379 344.0 L75.28799564836171 344.0 L74.34157207012962 344.0 L73.39514849189754 344.0 L72.44872491366547 344.0 L71.50230133543337 344.0 L70.55587775720133 344.0 L69.60945417896923 344.0 L68.66303060073716 344.0 L67.71660702250509 344.0 L66.77018344427302 344.0 L65.82375986604092 344.0 L64.87733628780884 344.0 L63.93091270957677 344.0 L62.984489131344674 344.0 L62.03806555311263 344.0 L61.09164197488056 344.0 L60.14521839664846 344.0 L59.19879481841639 344.0 L58.25237124018432 344.0 L57.30594766195222 344.0 L56.359524083720146 344.0 L55.4131005054881 344.0 L54.46667692725603 344.0 L53.52025334902393 344.0 L52.57382977079186 344.0 L51.62740619255976 344.0 L50.68098261432769 344.0 L49.73455903609562 344.0 L48.788135457863575 344.0 L47.841711879631475 344.0 L46.895288301399404 344.0 L45.948864723167304 344.0 L45.00244114493523 344.0 L44.05601756670316 344.0 L43.10959398847106 344.0 L42.16317041023902 344.0 L41.21674683200695 344.0 L40.270323253774876 344.0 L39.323899675542776 344.0 L38.377476097310705 344.0 L37.431052519078605 344.0 L36.484628940846534 344.0 L35.53820536261446 344.0 L34.59178178438242 344.0 L33.64535820615032 344.0 L32.69893462791825 344.0 L31.752511049686177 344.0 L30.806087471454077 344.0 L29.859663893222006 344.0 L28.913240314989906 344.0 L27.966816736757835 344.0 L27.020393158525792 344.0 L26.07396958029372 344.0 L25.12754600206162 344.0 L24.18112242382955 344.0 Z" fill="rgb(0,255,0)" stroke-width="1.0" fill-opacity="0.2980392156862745">
          </path>
        </g>
        <g>
          <path d="M24.18112242382955 325.6196508035616 L24.18112242382955 325.6196508035616 L25.12754600206162 325.15055445363055 L26.07396958029372 324.6809248624699 L27.020393158525792 324.2110088644184 L27.966816736757835 323.74102471603334 L28.913240314989906 323.27115911432065 L29.859663893222006 322.8015642275414 L30.806087471454077 322.332354753051 L31.752511049686177 321.86360501695776 L32.69893462791825 321.3953461306501 L33.64535820615032 320.92756321943386 L34.59178178438242 320.4601927386378 L35.53820536261446 319.99311989258973 L36.484628940846534 319.52617617182943 L37.431052519078605 319.0591370238188 L38.377476097310705 318.59171967222034 L39.323899675542776 318.12358109955744 L40.270323253774876 317.6543162077328 L41.21674683200695 317.18345617047714 L42.16317041023902 316.7104669913232 L43.10959398847106 316.23474828015674 L44.05601756670316 315.75563226079254 L45.00244114493523 315.27238302135237 L45.948864723167304 314.7841960185027 L46.895288301399404 314.2901978458285 L47.841711879631475 313.78944627579637 L48.788135457863575 313.2809305838834 L49.73455903609562 312.7635721625353 L50.68098261432769 312.23622543165845 L51.62740619255976 311.69767905135865 L52.57382977079186 311.14665744161005 L53.52025334902393 310.5818226124786 L54.46667692725603 310.00177630742843 L55.4131005054881 309.40506246112113 L56.359524083720146 308.7901699719621 L57.30594766195222 308.15553578846686 L58.25237124018432 307.4995483073117 L59.19879481841639 306.8205510796855 L60.14521839664846 306.1168468212927 L61.09164197488056 305.38670172004936 L62.03806555311263 304.6283500341796 L62.984489131344674 303.8399989720476 L63.93091270957677 303.0198338436597 L64.87733628780884 302.16602347233214 L65.82375986604092 301.27672585355265 L66.77018344427302 300.3500940465634 L67.71660702250509 299.3842822826652 L68.66303060073716 298.37745227269 L69.60945417896923 297.3277796945191 L70.55587775720133 296.23346083993675 L71.50230133543337 295.0927193985242 L72.44872491366547 293.90381335471125 L73.39514849189754 292.66504197253795 L74.34157207012962 291.37475284114043 L75.28799564836171 290.0313489524791 L76.23441922659379 288.63329578139843 L77.18084280482586 287.1791283367482 L78.12726638305793 285.66745815104167 L79.07368996129 284.096980174986 L80.02011353952207 282.466479542218 L80.96653711775417 280.7748381687397 L81.91296069598624 279.02104115089 L82.85938427421831 277.20418292523533 L83.80580785245041 275.3234731535349 L84.75223143068249 273.37824229595657 L85.69865500891453 271.3679468360035 L86.64507858714663 269.2921741211803 L87.5915021653787 267.1506467842969 L88.53792574361077 264.94322671148217 L89.48434932184287 262.66991852448683 L90.43077290007494 260.33087254667515 L91.37719647830701 257.9263872242685 L92.32362005653908 255.45691097688876 L93.27004363477116 252.92304345425867 L94.21646721300323 250.32553617904253 L95.16289079123533 247.66529255923086 L96.1093143694674 244.94336725717164 L97.05573794769947 242.16096490631202 L98.00216152593157 239.3194381708934 L98.94858510416361 236.42028514822184 L99.89500868239571 233.4651461176687 L100.84143226062778 230.4557996452117 L101.78785583885985 227.39415805704715 L102.73427941709193 224.28226230055571 L103.68070299532403 221.1222762156372 L104.6271265735561 217.91648024408144 L105.57355015178817 214.6672646091808 L106.51997373002024 211.3771220021417 L107.46639730825231 208.04863981598947 L108.41282088648438 204.68449197151662 L109.35924446471647 201.28743038335105 L110.30566804294855 197.86027611739124 L111.25209162118064 194.40591029360132 L112.1985151994127 190.92726479046766 L113.14493877764478 187.42731280923815 L114.09136235587687 183.9090593573781 L115.03778593410892 180.37553171146283 L115.98420951234101 176.82976991995542 L116.9306330905731 173.27481740600075 L117.87705666880517 169.71371172948193 L118.82348024703724 166.1494755661485 L119.76990382526931 162.5851079596429 L120.7163274035014 159.0235758997397 L121.66275098173348 155.46780627709313 L122.60917455996554 151.92067826130915 L123.55559813819762 148.38501614521238 L124.50202171642971 144.86358269387418 L125.4484452946618 141.35907303226722 L126.39486887289385 137.87410910045585 L127.34129245112594 134.41123469998087 L128.28771602935802 130.97291114970307 L129.2341396075901 127.56151356379232 L130.18056318582217 124.1793277589367 L131.12698676405424 120.82854779219733 L132.0734103422863 117.51127412533467 L133.0198339205184 114.22951240593414 L133.96625749875045 110.9851728503198 L134.91268107698255 107.7800702081162 L135.85910465521465 104.6159242834444 L136.8055282334467 101.49436098318827 L137.7519518116788 98.41691385854205 L138.69837538991086 95.38502610223247 L139.64479896814294 92.40005296039718 L140.591222546375 89.46326451513292 L141.53764612460708 86.57584879123715 L142.48406970283918 83.73891513863066 L143.43049328107125 80.95349784044299 L144.37691685930332 78.22055989568855 L145.3233404375354 75.54099692492798 L146.26976401576746 72.91564114726754 L147.21618759399956 70.3452653774612 L148.1626111722316 67.83058699277132 L149.1090347504637 65.3722718205915 L150.0554583286958 62.97093789956642 L151.00188190692785 60.62715906911575 L151.94830548515995 58.34146834477582 L152.89472906339202 56.114361039640414 L153.8411526416241 53.94629759534706 L154.78757621985616 51.83770608949362 L155.73399979808823 49.78898439006986 L156.68042337632033 47.800501931369126 L157.6268469545524 45.87260108992501 L158.57327053278448 44.00559814323469 L159.51969411101655 42.19978379835203 L160.46611768924862 40.455423281839956 L161.4125412674807 38.772755987035225 L162.35896484571276 37.15199467904256 L163.30538842394486 35.5933242623467 L164.25181200217696 34.09690012036788 L165.198235580409 32.66284604064015 L166.1446591586411 31.29125174359831 L167.09108273687318 29.98217003709965 L168.03750631510525 28.735613622875633 L168.98392989333732 27.551551584958418 L169.9303534715694 26.429905593857143 L170.8767770498015 25.370545863722498 L171.82320062803356 24.373286903049575 L172.76962420626563 23.437883102475666 L173.7160477844977 22.564024205997157 L174.66247136272978 21.751330714430992 L175.60889494096187 20.999349272087954 L176.55531851919392 20.3075480894899 L177.50174209742602 19.67531245645546 L178.4481656756581 19.101940400994238 L179.39458925389016 18.58663855020245 L180.34101283212226 18.128518249679075 L181.28743641035433 17.726591997884157 L182.2338599885864 17.37977025134029 L183.18028356681847 17.086858655577828 L184.12670714505055 16.846555755286488 L185.07313072328265 16.657451235188603 L186.01955430151472 16.518024740761064 L186.9659778797468 16.426645325004586 L187.91240145797886 16.38157156410631 L188.85882503621093 16.380952380952408 L189.80524861444303 16.422828611126533 L190.75167219267507 16.505135341222626 L191.69809577090714 16.625705044071424 L192.64451934913922 16.782271529823106 L193.59094292737132 16.97247472579022 L194.5373665056034 17.193866291560653 L195.4837900838355 17.443916069176623 L196.43021366206756 17.720019361212167 L197.37663724029966 18.019505022365763 L198.32306081853173 18.339644342847294 L199.26948439676377 18.67766069434208 L200.21590797499584 19.030739901857203 L201.16233155322794 19.396041297241254 L202.10875513146001 19.770709402797024 L203.0551787096921 20.15188618615963 L204.0016022879242 20.536723820635018 L204.94802586615626 20.922397878512356 L205.8944494443883 21.306120878561785 L206.8408730226204 21.685156103101917 L207.78729660085247 22.056831594708342 L208.73372017908454 22.418554237935496 L209.68014375731664 22.767823827362122 L210.6265673355487 23.102247019969923 L211.5729909137808 23.419551067299437 L212.51941449201288 23.717597221134383 L213.46583807024493 23.994393705601738 L214.412261648477 24.24810814866231 L215.3586852267091 24.47707936694178 L216.30510880494117 24.67982839982011 L217.25153238317324 24.855068691603606 L218.19795596140534 25.00171532448752 L219.1443795396374 25.118893209846647 L220.09080311786948 25.205944151158917 L221.03722669610156 25.262432698552516 L221.98365027433363 25.288150722504213 L222.9300738525657 25.28312064258671 L223.8764974307978 25.24759725630446 L224.82292100902987 25.18206812288372 L225.76934458726194 25.087252467339283 L226.71576816549404 24.964098581162148 L227.66219174372608 24.813779707405956 L228.60861532195815 24.637688409801285 L229.55503890019025 24.43742943759031 L230.50146247842233 24.21481111002305 L231.4478860566544 23.971835256747568 L232.3943096348865 23.71068576255834 L233.34073321311857 23.43371577701606 L234.28715679135064 23.14343366123461 L235.2335803695827 22.84248775550617 L236.18000394781478 22.533650062304275 L237.12642752604685 22.219798949472704 L238.07285110427895 21.903900987960185 L239.01927468251102 21.58899204719046 L239.9656982607431 21.27815777901708 L240.9121218389752 20.974513628048385 L241.85854541720724 20.6811845119459 L242.8049689954393 20.401284319954925 L243.7513925736714 20.137895381427484 L244.69781615190348 19.89404805834721 L245.64423973013555 19.672700616854627 L246.59066330836765 19.476719532481184 L247.53708688659972 19.308860382177272 L248.4835104648318 19.171749473307386 L249.42993404306384 19.06786635557529 L250.37635762129594 18.99952735634014 L251.322781199528 18.968870273050868 L252.2692047777601 18.977840348592906 L253.21562835599218 19.02817764626144 L254.16205193422425 19.121405930919934 L255.10847551245635 19.258823151753745 L256.05489909068837 19.441493609971303 L257.00132266892047 19.67024188192221 L257.94774624715257 19.945648554515458 L258.8941698253846 20.268047815647037 L259.8405934036167 20.63752692766326 L260.7870169818488 21.053927596874416 L261.7334405600809 21.51684923688032 L262.67986413831295 22.0256541080974 L263.626287716545 22.579474300578 L264.5727112947771 23.177220512033614 L265.5191348730092 23.8175925581225 L266.46555845124124 24.499091537629795 L267.41198202947334 25.22003356127817 L268.35840560770544 25.978564939724947 L269.3048291859375 26.772678713887842 L270.2512527641695 27.60023239924851 L271.1976763424016 28.458966805322007 L272.1440999206337 29.346525782094147 L273.09052349886576 30.260476737077 L274.03694707709786 31.19833175973008 L274.98337065532996 32.157569184454815 L275.929794233562 33.135655419204284 L276.8762178117941 34.13006686404367 L277.82264139002615 35.138311742744804 L278.76906496825825 36.15795167074435 L279.71548854649035 37.186622784510575 L280.6619121247224 38.222056260595025 L281.6083357029545 39.26209805729718 L282.5547592811866 40.30472771796832 L283.50118285941863 41.348076082454384 L284.4476064376507 42.39044176195239 L285.3940300158828 43.43030624258273 L286.3404535941149 44.46634749416887 L287.2868771723469 45.49745197294993 L288.233300750579 46.522724920175335 L289.1797243288111 47.541498872571765 L290.1261479070432 48.55334031545516 L291.07257148527526 49.55805442464339 L292.0189950635073 50.555687859154375 L292.9654186417394 51.5465295828501 L293.9118422199715 52.531109709534064 L294.85826579820355 53.51019638239376 L295.80468937643565 54.48479071498309 L296.75111295466775 55.45611983695716 L297.6975365328998 56.425628103442364 L298.64396011113183 57.394966542040436 L299.59038368936393 58.36598062592935 L300.53680726759603 59.34069647519618 L301.4832308458281 60.32130560131458 L302.4296544240602 61.31014832140721 L302.4296544240602 61.31014832140721 L303.3760780022923 62.309695979567664 L304.3225015805243 63.322532121905624 L305.2689251587564 64.35133278009585 L306.21534873698846 65.39884602492276 L307.16177231522056 66.46787095664098 L308.1081958934526 67.56123630279097 L309.0546194716847 68.6817787964539 L310.0010430499168 69.83232150874852 L310.94746662814885 71.01565230866771 L311.89389020638095 72.23450262116347 L312.840313784613 73.49152665068846 L313.7867373628451 74.78928123230384 L314.7331609410772 76.13020646593492 L315.67958451930923 77.51660728156168 L316.62600809754133 78.95063607404745 L317.57243167577343 80.43427653612542 L318.51885525400553 81.96932880679623 L319.4652788322376 83.55739604021494 L320.4117024104696 85.19987248714381 L321.3581259887017 86.8979331673579 L322.3045495669338 88.65252519715006 L323.25097314516586 90.46436082142188 L324.19739672339796 92.33391218490513 L325.14382030163006 94.26140786198911 L326.0902438798621 96.24683114955604 L327.0366674580942 98.28992011230889 L327.98309103632624 100.39016935544663 L328.92951461455834 102.54683348531663 L329.8759381927904 104.75893220502459 L330.8223617710225 107.0252569789769 L331.7687853492546 109.34437918812989 L332.71520892748663 111.71465968640265 L333.6616325057187 114.13425965837851 L334.60805608395077 116.60115266915761 L335.55447966218287 119.11313778910733 L336.5009032404149 121.66785366933198 L337.447326818647 124.2627934380206 L338.3937503968791 126.89532028343487 L339.34017397511116 129.56268358621668 L340.28659755334326 132.2620354619112 L341.23302113157536 134.9904475741283 L342.1794447098074 137.74492807955968 L343.1258682880395 140.5224385681289 L344.07229186627154 143.31991086479937 L345.01871544450364 146.13426356397517 L345.96513902273574 148.96241817291008 L346.9115626009678 151.80131474702776 L347.8579861791999 154.64792690747117 L348.8044097574319 157.49927613942998 L349.750833335664 160.352445278758 L350.6972569138961 163.2045911039871 L351.64368049212817 166.05295596093873 L352.59010407036027 168.89487835764925 L353.53652764859237 171.7278024781213 L354.4829512268244 174.54928657439538 L355.4293748050565 177.35701020748445 L356.37579838328855 180.14878031872382 L357.32222196152065 182.92253612394933 L358.2686455397527 185.676352833531 L359.21506911798474 188.40844421156493 L360.1614926962169 191.1171639973609 L361.10791627444894 193.80100622168692 L362.05433985268104 196.45860445897043 L363.0007634309131 199.08873006472618 L363.9471870091452 201.69028945485164 L364.8936105873772 204.2623204900261 L365.8400341656094 206.80398803425598 L366.7864577438414 209.31457876157154 L367.73288132207347 211.79349528900403 L368.67930490030557 214.24024971722255 L369.6257284785376 216.65445666260325 L370.5721520567697 219.03582586603855 L371.51857563500175 221.3841544644779 L372.4649992132339 223.69931901107282 L373.41142279146595 225.9812673288686 L374.357846369698 228.230010281326 L375.30426994793015 230.4456135405636 L376.2506935261622 232.62818943117782 L377.19711710439424 234.7778889238426 L378.1435406826263 236.8948938486837 L379.08996426085844 238.97940939373382 L380.0363878390905 241.03165694863682 L380.9828114173225 243.0518673482856 L381.9292349955547 245.0402745652704 L382.8756585737867 246.99710989398537 L383.8220821520188 248.92259666302897 L384.76850573025087 250.8169455062097 L385.71492930848297 252.68035021610464 L386.661352886715 254.51298419774685 L387.60777646494705 256.314997533734 L388.5542000431792 258.0865146658649 L389.50062362141125 259.82763269241 L390.44704719964335 261.5384202743352 L391.3934707778754 263.2189171382594 L392.3398943561075 264.86913415870526 L393.28631793433954 266.4890539972903 L394.2327415125717 268.0786322719771 L395.17916509080374 269.6377992253402 L396.1255886690358 271.16646185707356 L397.0720122472679 272.66450648263594 L398.0184358254999 274.1318016770599 L398.964859403732 275.56820156051623 L399.91128298196406 276.97354938024205 L400.8577065601962 278.3476813419208 L401.80413013842826 279.69043064251844 L402.7505537166603 281.00163165595376 L403.69697729489246 282.281124222779 L404.6434008731245 283.5287579952769 L405.58982445135655 284.7443967900135 L406.5362480295886 285.9279229009102 L407.48267160782075 287.07924132730165 L408.4290951860528 288.1982838731893 L409.37551876428483 289.28501307598015 L410.321942342517 290.33942592537653 L411.26836592074903 291.3615573357394 L412.21478949898113 292.35148333815187 L413.1612130772132 293.30932396153264 L414.1076366554453 294.23524577547124 L415.0540602336773 295.12946407093176 L416.0004838119095 295.9922446585905 L416.9469073901415 296.82390526828334 L417.89333096837356 297.6248165368319 L418.83975454660566 298.39540257534384 L419.7861781248377 299.13614111093005 L420.7326017030698 299.84756320160574 L421.67902528130185 300.53025252692345 L422.625448859534 301.1848442605958 L423.57187243776605 301.8120235349678 L424.5182960159981 302.41252351068135 L425.4647195942302 302.9871230681966 L426.41114317246223 303.5366441409868 L427.35756675069433 304.06194871317035 L428.3039903289264 304.563935507073 L429.25041390715853 305.0435363887039 L430.1968374853906 305.5017125213567 L431.1432610636226 305.9394502995076 L432.0896846418548 306.3577570968491 L433.0361082200868 306.75765686367305 L433.98253179831886 307.14018560987483 L434.9289553765509 307.5063868106011 L435.87537895478306 307.8573067719894 L436.8218025330151 308.1939899945504 L437.76822611124715 308.5174745715299 L438.7146496894793 308.82878765904616 L439.66107326771134 309.1289410539512 L440.60749684594344 309.41892691420605 L441.5539204241755 309.6997136551067 L442.5003440024076 309.9722420529666 L443.44676758063963 310.2374215858569 L444.3931911588718 310.4961270387563 L445.33961473710383 310.74919539798276 L446.2860383153359 310.99742305709344 L447.232461893568 311.24156335356696 L448.1788854718 311.48232445255724 L449.1253090500321 311.7203675908488 L450.07173262826416 311.95630569088473 L451.0181562064963 312.190702351406 L451.96457978472836 312.42407121786863 L452.9110033629604 312.65687573241786 L453.8574269411925 312.8895292598362 L454.80385051942454 313.12239558256596 L455.75027409765664 313.35578975467604 L456.6966976758887 313.58997930151986 L457.64312125412084 313.8251857488519 L458.5895448323529 314.0615864623575 L459.5359684105849 314.29931677593197 L460.482391988817 314.5384723846452 L461.42881556704907 314.77911197617095 L462.37523914528117 315.0212600725611 L463.3216627235132 315.264910052627 L464.26808630174537 315.51002732386416 L465.2145098799774 315.7565526118365 L466.16093345820946 316.0044053342292 L467.1073570364416 316.25348702639303 L468.05378061467366 316.503684785139 L469.0002041929057 316.7548746977977 L469.9466277711378 317.0069252241334 L470.8930513493699 317.2597004995884 L471.83947492760194 317.5130635295158 L472.7858985058341 317.7668792455326 L473.73232208406614 318.0210173968651 L474.6787456622982 318.2753552515521 L475.6251692405303 318.5297800845935 L476.5715928187623 318.78419143255877 L477.5180163969944 319.0385030967801 L478.46443997522647 319.2926448800095 L479.4108635534586 319.54656404430557 L480.35728713169067 319.80022648088584 L481.3037107099227 320.0536175857159 L482.2501342881548 320.3067428376704 L483.19655786638685 320.55962807915955 L484.14298144461895 320.812319502142 L485.089405022851 321.06488334540154 L486.03582860108315 321.3174053118324 L486.9822521793152 321.56998971721083 L487.92867575754724 321.82275838452153 L488.87509933577934 322.07584930030913 L489.8215229140114 322.32941505173466 L490.7679464922435 322.5836210649973 L491.7143700704755 322.83864366752283 L492.6607936487077 323.0946679978062 L493.6072172269397 323.3518857880085 L494.55364080517177 323.6104930453463 L495.5000643834039 323.87068765896 L496.44648796163597 324.1326669593101 L497.392911539868 324.39662525722395 L498.33933511810005 324.66275138950186 L499.2857586963322 324.9312262975021 L500.23218227456425 325.2022206643634 L501.1786058527964 325.47589263550583 L502.12502943102845 325.7523856457943 L503.0714530092605 326.03182637526277 L504.01787658749254 326.3143228536137 L504.9643001657246 326.59996273183447 L505.91072374395674 326.8888117372475 L506.8571473221888 327.18091232614614 L507.80357090042094 327.4762825459017 " fill="none" stroke-width="4.0" stroke="rgb(0,128,0)" stroke-opacity="1.0">
          </path>
        </g>
      </g>
    </g>
    <g transform="translate(14.5 182.0 ) rotate(-90.0 ) ">
      <text class="axis-title-y" y="0.0" text-anchor="middle">
      density
      </text>
    </g>
    <g transform="translate(324.00765333787484 391.5 ) ">
      <text class="axis-title-x" y="0.0" text-anchor="middle">
      x
      </text>
    </g>
  </g>
  <g id="dTeLfcw">
  </g>
</svg>